# xmcd
# 
# Track frame offsets:
#     150
#     16566
#     33126
#     52212
#     71376
#     85986
#     103956
#     121254
#     130597
#     150722
#     165586
#     180481
#     196611
#     211264
#     221151
# 
# Disc length: 3072
# 
# Revision: 1
# Processed by: cddbd v1.5.2PL0 Copyright (c) Steve Scherf et al.
# Submitted via: fre:ac v1.1beta1pre5
# 
DISCID=c10bfe0f
DTITLE=Various Artist - The Ultimate Country Collection - CD04
DYEAR=2009
DGENRE=Country
TTITLE0=Gretchen Wilson - Redneck Woman
TTITLE1=Kenny Chesney - Me And You
TTITLE2=Lonestar - I'm Already There
TTITLE3=Merle Haggard - Are The Good Times Really Over
TTITLE4=Montgomery Gentry - Hillbilly Shoes
TTITLE5=Pam Tillis - Maybe It Was Memphis
TTITLE6=Ricky Skaggs - Country Boy
TTITLE7=The Byrds - Ballad Of Easy Rider
TTITLE8=Rodney Crowell - After All This Time
TTITLE9=Rosanne Cash - I Don't Know Why You Don't Want Me
TTITLE10=Waylon Jennings - Luchenbach, Texas (Back To The Basics Of Love)
TTITLE11=Willie Nelson - Blue Skies
TTITLE12=Jeannie C Riley - Harper Valley PTA
TTITLE13=Jerry Lee Lewis - Lovesick Blues
TTITLE14=Charley Pride - Kiss An Angel Good Morning
EXTD=
EXTT0=
EXTT1=
EXTT2=
EXTT3=
EXTT4=
EXTT5=
EXTT6=
EXTT7=
EXTT8=
EXTT9=
EXTT10=
EXTT11=
EXTT12=
EXTT13=
EXTT14=
PLAYORDER=
